<?xml version="1.0" encoding="UTF-8"?>
<svg xmlns="http://www.w3.org/2000/svg" xmlns:xlink="http://www.w3.org/1999/xlink" width="384pt" height="383.999986pt" viewBox="0 0 384 383.999986" version="1.2">
<g id="surface1">
<path style=" stroke:none;fill-rule:nonzero;fill:rgb(21.958923%,63.139343%,41.178894%);fill-opacity:1;" d="M 4.699219 192 C 4.699219 295.4375 88.542969 379.300781 192 379.300781 C 295.4375 379.300781 379.300781 295.4375 379.300781 192 C 379.300781 88.542969 295.4375 4.699219 192 4.699219 C 88.542969 4.699219 4.699219 88.542969 4.699219 192 "/>
<path style=" stroke:none;fill-rule:nonzero;fill:rgb(9.799194%,14.898682%,27.449036%);fill-opacity:1;" d="M 321.570312 333.710938 C 341.136719 315.8125 356.34375 294.820312 367.183594 270.734375 C 378.40625 245.800781 384.019531 219.558594 384.019531 192 C 384.019531 172.195312 381.070312 152.933594 375.171875 134.222656 C 369.464844 116.109375 361.222656 99.199219 350.441406 83.488281 C 339.808594 67.988281 327.171875 54.332031 312.539062 42.515625 C 297.785156 30.605469 281.65625 21.097656 264.152344 13.996094 C 263.863281 13.882812 263.570312 13.792969 263.265625 13.734375 C 262.960938 13.675781 262.652344 13.648438 262.34375 13.652344 C 262.035156 13.652344 261.726562 13.6875 261.421875 13.75 C 261.121094 13.8125 260.824219 13.902344 260.539062 14.023438 C 260.253906 14.144531 259.984375 14.292969 259.726562 14.464844 C 259.472656 14.640625 259.234375 14.835938 259.015625 15.058594 C 258.796875 15.277344 258.605469 15.519531 258.433594 15.777344 C 258.265625 16.035156 258.121094 16.308594 258.003906 16.597656 C 257.886719 16.882812 257.800781 17.179688 257.742188 17.484375 C 257.683594 17.789062 257.65625 18.097656 257.65625 18.40625 C 257.660156 18.714844 257.691406 19.023438 257.753906 19.324219 C 257.816406 19.628906 257.910156 19.925781 258.03125 20.210938 C 258.152344 20.496094 258.296875 20.765625 258.472656 21.023438 C 258.648438 21.277344 258.84375 21.515625 259.066406 21.734375 C 259.285156 21.949219 259.523438 22.144531 259.785156 22.316406 C 260.042969 22.484375 260.316406 22.628906 260.601562 22.746094 C 277.242188 29.496094 292.578125 38.535156 306.609375 49.859375 C 320.527344 61.097656 332.546875 74.089844 342.660156 88.828125 C 352.910156 103.765625 360.746094 119.84375 366.171875 137.058594 C 371.777344 154.847656 374.578125 173.164062 374.578125 192 C 374.578125 218.207031 369.246094 243.160156 358.578125 266.859375 C 348.265625 289.761719 333.808594 309.722656 315.199219 326.746094 C 314.96875 326.957031 314.765625 327.1875 314.582031 327.4375 C 314.398438 327.6875 314.238281 327.949219 314.109375 328.230469 C 313.976562 328.511719 313.875 328.804688 313.800781 329.105469 C 313.726562 329.40625 313.683594 329.710938 313.667969 330.019531 C 313.65625 330.328125 313.671875 330.636719 313.71875 330.945312 C 313.765625 331.25 313.84375 331.550781 313.949219 331.839844 C 314.054688 332.132812 314.1875 332.410156 314.347656 332.675781 C 314.507812 332.941406 314.691406 333.1875 314.902344 333.414062 C 315.113281 333.644531 315.339844 333.851562 315.589844 334.035156 C 315.839844 334.21875 316.105469 334.375 316.386719 334.503906 C 316.667969 334.636719 316.957031 334.738281 317.257812 334.8125 C 317.558594 334.886719 317.867188 334.929688 318.175781 334.945312 C 318.484375 334.957031 318.792969 334.941406 319.097656 334.894531 C 319.40625 334.847656 319.703125 334.773438 319.996094 334.667969 C 320.285156 334.558594 320.566406 334.425781 320.828125 334.265625 C 321.09375 334.105469 321.34375 333.921875 321.570312 333.710938 Z M 209.160156 0.738281 C 203.46875 0.234375 197.746094 -0.0195312 192 -0.0195312 C 165.953125 -0.0195312 141.039062 5.011719 117.25 15.070312 C 94.277344 24.785156 73.929688 38.5 56.214844 56.214844 C 38.5 73.929688 24.785156 94.277344 15.070312 117.25 C 5.011719 141.039062 -0.0195312 165.953125 -0.0195312 192 C -0.0195312 218.042969 5.011719 242.957031 15.070312 266.742188 C 24.785156 289.714844 38.503906 310.058594 56.214844 327.777344 C 73.933594 345.492188 94.277344 359.210938 117.25 368.925781 C 141.039062 378.988281 165.953125 384.019531 192 384.019531 C 206.597656 384.019531 220.945312 382.402344 235.046875 379.171875 C 248.761719 376.03125 261.976562 371.425781 274.683594 365.351562 C 274.960938 365.21875 275.226562 365.058594 275.472656 364.875 C 275.722656 364.6875 275.949219 364.480469 276.15625 364.25 C 276.363281 364.019531 276.546875 363.769531 276.707031 363.503906 C 276.863281 363.238281 276.996094 362.957031 277.097656 362.667969 C 277.199219 362.375 277.273438 362.074219 277.320312 361.769531 C 277.363281 361.460938 277.378906 361.152344 277.359375 360.84375 C 277.34375 360.535156 277.296875 360.230469 277.222656 359.929688 C 277.144531 359.628906 277.039062 359.339844 276.90625 359.058594 C 276.773438 358.78125 276.613281 358.515625 276.425781 358.265625 C 276.242188 358.019531 276.035156 357.792969 275.804688 357.585938 C 275.574219 357.378906 275.324219 357.195312 275.058594 357.035156 C 274.792969 356.878906 274.511719 356.746094 274.21875 356.644531 C 273.925781 356.539062 273.628906 356.464844 273.320312 356.421875 C 273.015625 356.378906 272.707031 356.363281 272.398438 356.378906 C 272.085938 356.398438 271.78125 356.445312 271.480469 356.519531 C 271.183594 356.597656 270.890625 356.703125 270.613281 356.835938 C 245.855469 368.664062 219.652344 374.578125 192 374.578125 C 167.230469 374.578125 143.539062 369.796875 120.925781 360.234375 C 99.085938 350.992188 79.738281 337.949219 62.890625 321.101562 C 46.042969 304.253906 33.003906 284.910156 23.765625 263.066406 C 14.203125 240.453125 9.421875 216.765625 9.421875 192 C 9.421875 167.230469 14.203125 143.539062 23.765625 120.925781 C 33.003906 99.082031 46.042969 79.738281 62.890625 62.890625 C 79.738281 46.042969 99.082031 33.003906 120.925781 23.765625 C 143.539062 14.203125 167.230469 9.421875 192 9.421875 C 197.46875 9.421875 202.910156 9.660156 208.328125 10.140625 C 208.636719 10.167969 208.945312 10.164062 209.253906 10.132812 C 209.5625 10.097656 209.863281 10.035156 210.160156 9.941406 C 210.453125 9.847656 210.738281 9.726562 211.011719 9.578125 C 211.28125 9.429688 211.535156 9.257812 211.773438 9.058594 C 212.011719 8.859375 212.226562 8.640625 212.421875 8.398438 C 212.617188 8.15625 212.785156 7.898438 212.929688 7.625 C 213.070312 7.347656 213.1875 7.0625 213.273438 6.765625 C 213.359375 6.46875 213.417969 6.164062 213.445312 5.855469 C 213.472656 5.546875 213.46875 5.238281 213.4375 4.929688 C 213.402344 4.621094 213.339844 4.320312 213.246094 4.023438 C 213.15625 3.730469 213.035156 3.445312 212.886719 3.171875 C 212.734375 2.902344 212.5625 2.648438 212.363281 2.410156 C 212.164062 2.171875 211.945312 1.957031 211.703125 1.761719 C 211.460938 1.566406 211.203125 1.398438 210.929688 1.253906 C 210.652344 1.113281 210.367188 0.996094 210.070312 0.910156 C 209.773438 0.824219 209.46875 0.765625 209.160156 0.738281 Z M 209.160156 0.738281 "/>
<path style=" stroke:none;fill-rule:nonzero;fill:rgb(21.958923%,63.139343%,41.178894%);fill-opacity:1;" d="M 38.609375 192 C 38.609375 276.730469 107.289062 345.390625 192 345.390625 C 276.730469 345.390625 345.390625 276.730469 345.390625 192 C 345.390625 107.289062 276.730469 38.609375 192 38.609375 C 107.289062 38.609375 38.609375 107.289062 38.609375 192 "/>
<path style=" stroke:none;fill-rule:nonzero;fill:rgb(9.799194%,14.898682%,27.449036%);fill-opacity:1;" d="M 342.164062 241.636719 C 347.464844 225.597656 350.113281 209.050781 350.113281 192 C 350.113281 170.558594 345.96875 150.042969 337.6875 130.457031 C 329.6875 111.539062 318.394531 94.789062 303.808594 80.199219 C 289.21875 65.613281 272.46875 54.316406 253.550781 46.316406 C 233.964844 38.03125 213.445312 33.886719 192 33.886719 C 176.5 33.886719 161.390625 36.085938 146.671875 40.484375 C 132.421875 44.742188 119.023438 50.910156 106.476562 58.996094 C 106.21875 59.164062 105.976562 59.355469 105.753906 59.570312 C 105.53125 59.785156 105.332031 60.019531 105.152344 60.273438 C 104.976562 60.53125 104.828125 60.800781 104.703125 61.082031 C 104.582031 61.367188 104.488281 61.660156 104.421875 61.964844 C 104.355469 62.265625 104.320312 62.574219 104.316406 62.882812 C 104.308594 63.195312 104.335938 63.5 104.390625 63.804688 C 104.445312 64.109375 104.53125 64.40625 104.644531 64.695312 C 104.757812 64.984375 104.898438 65.257812 105.066406 65.519531 C 105.234375 65.777344 105.425781 66.019531 105.640625 66.242188 C 105.855469 66.464844 106.09375 66.664062 106.347656 66.84375 C 106.601562 67.019531 106.871094 67.167969 107.15625 67.292969 C 107.441406 67.414062 107.734375 67.511719 108.035156 67.574219 C 108.339844 67.640625 108.644531 67.675781 108.957031 67.679688 C 109.265625 67.6875 109.574219 67.660156 109.878906 67.605469 C 110.183594 67.550781 110.480469 67.464844 110.765625 67.351562 C 111.054688 67.238281 111.328125 67.097656 111.589844 66.929688 C 123.382812 59.332031 135.980469 53.53125 149.375 49.527344 C 163.210938 45.394531 177.417969 43.328125 192 43.328125 C 212.167969 43.328125 231.460938 47.222656 249.875 55.007812 C 267.660156 62.53125 283.414062 73.15625 297.132812 86.875 C 310.851562 100.59375 321.472656 116.347656 328.992188 134.132812 C 336.777344 152.546875 340.671875 171.835938 340.671875 192 C 340.671875 208.039062 338.183594 223.597656 333.203125 238.675781 C 333.105469 238.972656 333.039062 239.273438 333 239.578125 C 332.960938 239.886719 332.953125 240.195312 332.976562 240.503906 C 333 240.8125 333.050781 241.117188 333.136719 241.414062 C 333.21875 241.714844 333.328125 242.003906 333.46875 242.277344 C 333.605469 242.554688 333.773438 242.816406 333.964844 243.0625 C 334.152344 243.304688 334.367188 243.527344 334.601562 243.730469 C 334.835938 243.933594 335.085938 244.109375 335.359375 244.261719 C 335.628906 244.417969 335.910156 244.542969 336.203125 244.636719 C 336.496094 244.734375 336.796875 244.804688 337.105469 244.839844 C 337.414062 244.878906 337.722656 244.886719 338.03125 244.863281 C 338.339844 244.839844 338.644531 244.789062 338.941406 244.707031 C 339.242188 244.621094 339.527344 244.511719 339.804688 244.371094 C 340.082031 244.234375 340.34375 244.066406 340.585938 243.878906 C 340.832031 243.6875 341.054688 243.472656 341.257812 243.238281 C 341.460938 243.003906 341.636719 242.753906 341.789062 242.484375 C 341.941406 242.214844 342.066406 241.929688 342.164062 241.636719 Z M 65.023438 97.773438 C 55.0625 111.175781 47.429688 125.757812 42.121094 141.519531 C 36.632812 157.816406 33.886719 174.644531 33.886719 192 C 33.886719 213.445312 38.03125 233.964844 46.316406 253.550781 C 54.316406 272.46875 65.613281 289.21875 80.199219 303.808594 C 94.789062 318.394531 111.539062 329.6875 130.457031 337.6875 C 150.042969 345.96875 170.558594 350.113281 192 350.113281 C 216.386719 350.113281 239.460938 344.808594 261.21875 334.199219 C 271.636719 329.117188 281.394531 322.957031 290.484375 315.710938 C 299.515625 308.511719 307.664062 300.425781 314.933594 291.449219 C 315.128906 291.210938 315.296875 290.953125 315.441406 290.679688 C 315.585938 290.402344 315.703125 290.117188 315.792969 289.820312 C 315.878906 289.523438 315.9375 289.222656 315.964844 288.914062 C 315.992188 288.605469 315.992188 288.296875 315.960938 287.988281 C 315.925781 287.679688 315.867188 287.378906 315.773438 287.082031 C 315.679688 286.785156 315.5625 286.5 315.414062 286.230469 C 315.265625 285.957031 315.09375 285.699219 314.894531 285.460938 C 314.695312 285.222656 314.476562 285.007812 314.238281 284.8125 C 313.996094 284.617188 313.738281 284.449219 313.464844 284.304688 C 313.1875 284.160156 312.902344 284.042969 312.605469 283.953125 C 312.308594 283.867188 312.007812 283.808594 311.699219 283.78125 C 311.390625 283.753906 311.082031 283.753906 310.773438 283.785156 C 310.464844 283.820312 310.164062 283.882812 309.867188 283.972656 C 309.570312 284.066406 309.285156 284.183594 309.015625 284.332031 C 308.742188 284.480469 308.488281 284.652344 308.25 284.851562 C 308.011719 285.050781 307.792969 285.269531 307.597656 285.511719 C 293.703125 302.667969 276.863281 316.070312 257.082031 325.714844 C 236.628906 335.6875 214.933594 340.671875 192 340.671875 C 171.835938 340.671875 152.546875 336.78125 134.132812 328.992188 C 116.347656 321.472656 100.59375 310.851562 86.875 297.132812 C 73.15625 283.414062 62.53125 267.660156 55.007812 249.875 C 47.222656 231.460938 43.328125 212.167969 43.328125 192 C 43.328125 175.675781 45.90625 159.851562 51.066406 144.53125 C 56.054688 129.714844 63.234375 116.007812 72.597656 103.40625 C 72.785156 103.15625 72.941406 102.894531 73.074219 102.613281 C 73.207031 102.332031 73.3125 102.042969 73.386719 101.742188 C 73.464844 101.441406 73.507812 101.136719 73.523438 100.828125 C 73.539062 100.515625 73.527344 100.210938 73.480469 99.902344 C 73.433594 99.597656 73.359375 99.296875 73.257812 99.003906 C 73.152344 98.714844 73.019531 98.433594 72.863281 98.167969 C 72.703125 97.902344 72.519531 97.65625 72.3125 97.425781 C 72.105469 97.195312 71.875 96.988281 71.625 96.800781 C 71.378906 96.617188 71.113281 96.457031 70.832031 96.324219 C 70.554688 96.191406 70.261719 96.089844 69.960938 96.011719 C 69.660156 95.9375 69.355469 95.890625 69.046875 95.875 C 68.738281 95.859375 68.429688 95.875 68.125 95.921875 C 67.816406 95.964844 67.519531 96.039062 67.226562 96.144531 C 66.933594 96.25 66.65625 96.378906 66.390625 96.539062 C 66.121094 96.699219 65.875 96.882812 65.644531 97.089844 C 65.414062 97.296875 65.207031 97.527344 65.023438 97.773438 Z M 65.023438 97.773438 "/>
<path style=" stroke:none;fill-rule:nonzero;fill:rgb(21.958923%,63.139343%,41.178894%);fill-opacity:1;" d="M 191.527344 89.902344 L 191.527344 192 L 249.882812 246.277344 "/>
<path style=" stroke:none;fill-rule:nonzero;fill:rgb(9.799194%,14.898682%,27.449036%);fill-opacity:1;" d="M 186.808594 89.902344 L 186.808594 192 C 186.808594 192.65625 186.9375 193.285156 187.199219 193.886719 C 187.460938 194.484375 187.832031 195.007812 188.3125 195.457031 L 246.667969 249.734375 C 246.894531 249.945312 247.140625 250.132812 247.40625 250.292969 C 247.667969 250.457031 247.945312 250.59375 248.234375 250.699219 C 248.527344 250.808594 248.824219 250.886719 249.128906 250.9375 C 249.4375 250.984375 249.746094 251.003906 250.054688 250.992188 C 250.363281 250.984375 250.667969 250.941406 250.972656 250.871094 C 251.273438 250.796875 251.5625 250.699219 251.847656 250.570312 C 252.128906 250.441406 252.394531 250.285156 252.644531 250.105469 C 252.898438 249.921875 253.128906 249.71875 253.339844 249.492188 C 253.550781 249.265625 253.738281 249.019531 253.898438 248.753906 C 254.0625 248.492188 254.199219 248.214844 254.304688 247.925781 C 254.414062 247.632812 254.492188 247.335938 254.542969 247.03125 C 254.59375 246.722656 254.609375 246.417969 254.601562 246.105469 C 254.589844 245.796875 254.546875 245.492188 254.476562 245.191406 C 254.40625 244.886719 254.304688 244.597656 254.175781 244.316406 C 254.046875 244.03125 253.890625 243.765625 253.710938 243.515625 C 253.527344 243.261719 253.324219 243.03125 253.097656 242.820312 L 194.742188 188.542969 L 191.527344 192 L 196.246094 192 L 196.246094 89.902344 C 196.246094 89.59375 196.21875 89.285156 196.15625 88.980469 C 196.097656 88.675781 196.007812 88.382812 195.886719 88.097656 C 195.769531 87.808594 195.625 87.539062 195.453125 87.28125 C 195.28125 87.023438 195.085938 86.785156 194.867188 86.566406 C 194.644531 86.34375 194.40625 86.148438 194.148438 85.976562 C 193.890625 85.804688 193.621094 85.660156 193.335938 85.542969 C 193.046875 85.421875 192.753906 85.332031 192.449219 85.273438 C 192.144531 85.210938 191.839844 85.183594 191.527344 85.183594 C 191.21875 85.183594 190.910156 85.210938 190.605469 85.273438 C 190.304688 85.332031 190.007812 85.421875 189.722656 85.542969 C 189.433594 85.660156 189.164062 85.804688 188.90625 85.976562 C 188.648438 86.148438 188.410156 86.34375 188.191406 86.566406 C 187.972656 86.785156 187.777344 87.023438 187.605469 87.28125 C 187.429688 87.539062 187.285156 87.808594 187.167969 88.097656 C 187.050781 88.382812 186.960938 88.675781 186.898438 88.980469 C 186.839844 89.285156 186.808594 89.59375 186.808594 89.902344 Z M 186.808594 89.902344 "/>
<path style=" stroke:none;fill-rule:nonzero;fill:rgb(9.799194%,14.898682%,27.449036%);fill-opacity:1;" d="M 186.808594 51.351562 L 186.808594 74.949219 C 186.808594 75.257812 186.839844 75.566406 186.898438 75.871094 C 186.960938 76.175781 187.050781 76.46875 187.167969 76.757812 C 187.285156 77.042969 187.429688 77.3125 187.605469 77.570312 C 187.777344 77.828125 187.972656 78.066406 188.191406 78.289062 C 188.410156 78.507812 188.648438 78.703125 188.90625 78.875 C 189.164062 79.046875 189.433594 79.191406 189.722656 79.308594 C 190.007812 79.429688 190.304688 79.519531 190.605469 79.578125 C 190.910156 79.640625 191.21875 79.667969 191.527344 79.667969 C 191.839844 79.667969 192.144531 79.640625 192.449219 79.578125 C 192.753906 79.519531 193.046875 79.429688 193.335938 79.308594 C 193.621094 79.191406 193.890625 79.046875 194.148438 78.875 C 194.40625 78.703125 194.644531 78.507812 194.867188 78.289062 C 195.085938 78.066406 195.28125 77.828125 195.453125 77.570312 C 195.625 77.3125 195.769531 77.042969 195.886719 76.757812 C 196.007812 76.46875 196.097656 76.175781 196.15625 75.871094 C 196.21875 75.566406 196.246094 75.257812 196.246094 74.949219 L 196.246094 51.351562 C 196.246094 51.042969 196.21875 50.734375 196.15625 50.429688 C 196.097656 50.125 196.007812 49.832031 195.886719 49.546875 C 195.769531 49.257812 195.625 48.988281 195.453125 48.730469 C 195.28125 48.472656 195.085938 48.234375 194.867188 48.015625 C 194.644531 47.792969 194.40625 47.597656 194.148438 47.425781 C 193.890625 47.253906 193.621094 47.109375 193.335938 46.992188 C 193.046875 46.871094 192.753906 46.78125 192.449219 46.722656 C 192.144531 46.660156 191.839844 46.632812 191.527344 46.632812 C 191.21875 46.632812 190.910156 46.660156 190.605469 46.722656 C 190.304688 46.78125 190.007812 46.871094 189.722656 46.992188 C 189.433594 47.109375 189.164062 47.253906 188.90625 47.425781 C 188.648438 47.597656 188.410156 47.792969 188.191406 48.015625 C 187.972656 48.234375 187.777344 48.472656 187.605469 48.730469 C 187.429688 48.988281 187.285156 49.257812 187.167969 49.546875 C 187.050781 49.832031 186.960938 50.125 186.898438 50.429688 C 186.839844 50.734375 186.808594 51.042969 186.808594 51.351562 Z M 186.808594 51.351562 "/>
<path style=" stroke:none;fill-rule:nonzero;fill:rgb(21.958923%,63.139343%,41.178894%);fill-opacity:1;" d="M 290.984375 92.546875 L 274.3125 109.234375 "/>
<path style=" stroke:none;fill-rule:nonzero;fill:rgb(9.799194%,14.898682%,27.449036%);fill-opacity:1;" d="M 287.644531 89.210938 L 270.972656 105.898438 C 270.753906 106.117188 270.558594 106.355469 270.386719 106.613281 C 270.214844 106.871094 270.070312 107.144531 269.949219 107.429688 C 269.832031 107.71875 269.742188 108.011719 269.683594 108.316406 C 269.621094 108.621094 269.59375 108.925781 269.59375 109.238281 C 269.59375 109.546875 269.625 109.855469 269.683594 110.15625 C 269.746094 110.460938 269.835938 110.757812 269.953125 111.042969 C 270.070312 111.328125 270.21875 111.601562 270.390625 111.859375 C 270.5625 112.117188 270.757812 112.355469 270.976562 112.574219 C 271.195312 112.792969 271.433594 112.988281 271.691406 113.160156 C 271.949219 113.332031 272.222656 113.476562 272.507812 113.597656 C 272.796875 113.714844 273.089844 113.804688 273.394531 113.863281 C 273.699219 113.925781 274.003906 113.953125 274.316406 113.953125 C 274.625 113.953125 274.933594 113.921875 275.234375 113.863281 C 275.539062 113.800781 275.835938 113.710938 276.121094 113.59375 C 276.40625 113.476562 276.679688 113.328125 276.9375 113.15625 C 277.195312 112.984375 277.433594 112.789062 277.652344 112.570312 L 294.320312 95.878906 C 294.542969 95.660156 294.738281 95.421875 294.910156 95.164062 C 295.082031 94.90625 295.226562 94.636719 295.34375 94.347656 C 295.460938 94.0625 295.550781 93.765625 295.613281 93.464844 C 295.671875 93.160156 295.703125 92.851562 295.703125 92.542969 C 295.703125 92.234375 295.671875 91.925781 295.613281 91.621094 C 295.550781 91.316406 295.460938 91.023438 295.34375 90.738281 C 295.222656 90.449219 295.078125 90.179688 294.90625 89.921875 C 294.734375 89.664062 294.539062 89.425781 294.320312 89.207031 C 294.097656 88.988281 293.859375 88.792969 293.601562 88.621094 C 293.34375 88.449219 293.074219 88.300781 292.785156 88.183594 C 292.5 88.066406 292.203125 87.976562 291.902344 87.914062 C 291.597656 87.855469 291.289062 87.824219 290.980469 87.824219 C 290.671875 87.824219 290.363281 87.855469 290.058594 87.917969 C 289.753906 87.976562 289.460938 88.066406 289.175781 88.1875 C 288.886719 88.304688 288.617188 88.449219 288.359375 88.621094 C 288.101562 88.792969 287.863281 88.992188 287.644531 89.210938 Z M 287.644531 89.210938 "/>
<path style=" stroke:none;fill-rule:nonzero;fill:rgb(9.799194%,14.898682%,27.449036%);fill-opacity:1;" d="M 332.175781 187.28125 L 308.578125 187.28125 C 308.269531 187.28125 307.960938 187.308594 307.65625 187.371094 C 307.351562 187.429688 307.058594 187.519531 306.773438 187.640625 C 306.484375 187.757812 306.214844 187.902344 305.957031 188.074219 C 305.699219 188.246094 305.460938 188.445312 305.242188 188.664062 C 305.023438 188.882812 304.824219 189.121094 304.652344 189.378906 C 304.480469 189.636719 304.335938 189.90625 304.21875 190.195312 C 304.097656 190.480469 304.007812 190.773438 303.949219 191.078125 C 303.886719 191.382812 303.859375 191.691406 303.859375 192 C 303.859375 192.308594 303.886719 192.617188 303.949219 192.921875 C 304.007812 193.226562 304.097656 193.519531 304.21875 193.804688 C 304.335938 194.09375 304.480469 194.363281 304.652344 194.621094 C 304.824219 194.878906 305.023438 195.117188 305.242188 195.335938 C 305.460938 195.554688 305.699219 195.753906 305.957031 195.925781 C 306.214844 196.097656 306.484375 196.242188 306.773438 196.359375 C 307.058594 196.480469 307.351562 196.570312 307.65625 196.628906 C 307.960938 196.691406 308.269531 196.71875 308.578125 196.71875 L 332.175781 196.71875 C 332.488281 196.71875 332.792969 196.691406 333.097656 196.628906 C 333.402344 196.570312 333.695312 196.480469 333.984375 196.359375 C 334.269531 196.242188 334.542969 196.097656 334.800781 195.925781 C 335.058594 195.753906 335.296875 195.554688 335.515625 195.335938 C 335.734375 195.117188 335.929688 194.878906 336.101562 194.621094 C 336.273438 194.363281 336.417969 194.09375 336.539062 193.804688 C 336.65625 193.519531 336.746094 193.226562 336.804688 192.921875 C 336.867188 192.617188 336.898438 192.308594 336.898438 192 C 336.898438 191.691406 336.867188 191.382812 336.804688 191.078125 C 336.746094 190.773438 336.65625 190.480469 336.539062 190.195312 C 336.417969 189.90625 336.273438 189.636719 336.101562 189.378906 C 335.929688 189.121094 335.734375 188.882812 335.515625 188.664062 C 335.296875 188.445312 335.058594 188.246094 334.800781 188.074219 C 334.542969 187.902344 334.269531 187.757812 333.984375 187.640625 C 333.695312 187.519531 333.402344 187.429688 333.097656 187.371094 C 332.792969 187.308594 332.488281 187.28125 332.175781 187.28125 Z M 332.175781 187.28125 "/>
<path style=" stroke:none;fill-rule:nonzero;fill:rgb(21.958923%,63.139343%,41.178894%);fill-opacity:1;" d="M 290.984375 291.453125 L 274.3125 274.765625 "/>
<path style=" stroke:none;fill-rule:nonzero;fill:rgb(9.799194%,14.898682%,27.449036%);fill-opacity:1;" d="M 294.320312 288.121094 L 277.652344 271.429688 C 277.433594 271.210938 277.195312 271.015625 276.9375 270.84375 C 276.679688 270.671875 276.40625 270.523438 276.121094 270.40625 C 275.835938 270.289062 275.539062 270.199219 275.234375 270.136719 C 274.933594 270.078125 274.625 270.046875 274.316406 270.046875 C 274.003906 270.046875 273.699219 270.074219 273.394531 270.136719 C 273.089844 270.195312 272.796875 270.285156 272.507812 270.40625 C 272.222656 270.523438 271.949219 270.667969 271.691406 270.839844 C 271.433594 271.011719 271.195312 271.207031 270.976562 271.425781 C 270.757812 271.644531 270.5625 271.882812 270.390625 272.140625 C 270.21875 272.398438 270.070312 272.671875 269.953125 272.957031 C 269.835938 273.242188 269.746094 273.539062 269.683594 273.84375 C 269.625 274.144531 269.59375 274.453125 269.59375 274.761719 C 269.59375 275.074219 269.621094 275.378906 269.683594 275.683594 C 269.742188 275.988281 269.832031 276.28125 269.949219 276.570312 C 270.070312 276.855469 270.214844 277.128906 270.386719 277.386719 C 270.558594 277.644531 270.753906 277.882812 270.972656 278.101562 L 287.644531 294.789062 C 287.863281 295.007812 288.101562 295.207031 288.359375 295.378906 C 288.617188 295.550781 288.886719 295.695312 289.175781 295.8125 C 289.460938 295.933594 289.753906 296.023438 290.058594 296.082031 C 290.363281 296.144531 290.671875 296.175781 290.980469 296.175781 C 291.289062 296.175781 291.597656 296.144531 291.902344 296.085938 C 292.203125 296.023438 292.5 295.933594 292.785156 295.816406 C 293.074219 295.699219 293.34375 295.554688 293.601562 295.378906 C 293.859375 295.207031 294.097656 295.011719 294.320312 294.792969 C 294.539062 294.574219 294.734375 294.335938 294.90625 294.078125 C 295.078125 293.820312 295.222656 293.550781 295.34375 293.261719 C 295.460938 292.976562 295.550781 292.683594 295.613281 292.378906 C 295.671875 292.074219 295.703125 291.765625 295.703125 291.457031 C 295.703125 291.148438 295.671875 290.839844 295.613281 290.535156 C 295.550781 290.234375 295.460938 289.9375 295.34375 289.652344 C 295.226562 289.363281 295.082031 289.09375 294.910156 288.835938 C 294.738281 288.578125 294.542969 288.339844 294.320312 288.121094 Z M 294.320312 288.121094 "/>
<path style=" stroke:none;fill-rule:nonzero;fill:rgb(9.799194%,14.898682%,27.449036%);fill-opacity:1;" d="M 196.246094 332.648438 L 196.246094 309.050781 C 196.246094 308.742188 196.21875 308.433594 196.15625 308.128906 C 196.097656 307.824219 196.007812 307.53125 195.886719 307.242188 C 195.769531 306.957031 195.625 306.6875 195.453125 306.429688 C 195.28125 306.171875 195.085938 305.933594 194.867188 305.710938 C 194.644531 305.492188 194.40625 305.296875 194.148438 305.125 C 193.890625 304.953125 193.621094 304.808594 193.335938 304.691406 C 193.046875 304.570312 192.753906 304.480469 192.449219 304.421875 C 192.144531 304.359375 191.839844 304.332031 191.527344 304.332031 C 191.21875 304.332031 190.910156 304.359375 190.605469 304.421875 C 190.304688 304.480469 190.007812 304.570312 189.722656 304.691406 C 189.433594 304.808594 189.164062 304.953125 188.90625 305.125 C 188.648438 305.296875 188.410156 305.492188 188.191406 305.710938 C 187.972656 305.933594 187.777344 306.171875 187.605469 306.429688 C 187.429688 306.6875 187.285156 306.957031 187.167969 307.242188 C 187.050781 307.53125 186.960938 307.824219 186.898438 308.128906 C 186.839844 308.433594 186.808594 308.742188 186.808594 309.050781 L 186.808594 332.648438 C 186.808594 332.957031 186.839844 333.265625 186.898438 333.570312 C 186.960938 333.875 187.050781 334.167969 187.167969 334.457031 C 187.285156 334.742188 187.429688 335.011719 187.605469 335.269531 C 187.777344 335.527344 187.972656 335.765625 188.191406 335.988281 C 188.410156 336.207031 188.648438 336.402344 188.90625 336.574219 C 189.164062 336.746094 189.433594 336.890625 189.722656 337.007812 C 190.007812 337.128906 190.304688 337.21875 190.605469 337.277344 C 190.910156 337.339844 191.21875 337.367188 191.527344 337.367188 C 191.839844 337.367188 192.144531 337.339844 192.449219 337.277344 C 192.753906 337.21875 193.046875 337.128906 193.335938 337.007812 C 193.621094 336.890625 193.890625 336.746094 194.148438 336.574219 C 194.40625 336.402344 194.644531 336.207031 194.867188 335.988281 C 195.085938 335.765625 195.28125 335.527344 195.453125 335.269531 C 195.625 335.011719 195.769531 334.742188 195.886719 334.457031 C 196.007812 334.167969 196.097656 333.875 196.15625 333.570312 C 196.21875 333.265625 196.246094 332.957031 196.246094 332.648438 Z M 196.246094 332.648438 "/>
<path style=" stroke:none;fill-rule:nonzero;fill:rgb(21.958923%,63.139343%,41.178894%);fill-opacity:1;" d="M 92.074219 291.453125 L 108.761719 274.765625 "/>
<path style=" stroke:none;fill-rule:nonzero;fill:rgb(9.799194%,14.898682%,27.449036%);fill-opacity:1;" d="M 95.410156 294.792969 L 112.097656 278.101562 C 112.320312 277.882812 112.515625 277.644531 112.6875 277.386719 C 112.859375 277.128906 113.003906 276.859375 113.121094 276.570312 C 113.242188 276.285156 113.332031 275.992188 113.390625 275.6875 C 113.453125 275.382812 113.480469 275.074219 113.480469 274.765625 C 113.480469 274.457031 113.453125 274.148438 113.390625 273.84375 C 113.332031 273.542969 113.242188 273.246094 113.121094 272.960938 C 113.003906 272.671875 112.859375 272.402344 112.6875 272.144531 C 112.515625 271.886719 112.320312 271.648438 112.097656 271.429688 C 111.878906 271.210938 111.640625 271.015625 111.382812 270.839844 C 111.125 270.667969 110.855469 270.523438 110.566406 270.40625 C 110.28125 270.285156 109.988281 270.199219 109.683594 270.136719 C 109.378906 270.078125 109.070312 270.046875 108.761719 270.046875 C 108.453125 270.046875 108.144531 270.078125 107.839844 270.136719 C 107.539062 270.199219 107.242188 270.285156 106.957031 270.40625 C 106.667969 270.523438 106.398438 270.667969 106.140625 270.839844 C 105.882812 271.015625 105.644531 271.210938 105.425781 271.429688 L 88.734375 288.117188 C 88.515625 288.335938 88.320312 288.574219 88.148438 288.832031 C 87.976562 289.089844 87.832031 289.363281 87.710938 289.648438 C 87.59375 289.933594 87.503906 290.230469 87.445312 290.535156 C 87.382812 290.839844 87.351562 291.144531 87.351562 291.453125 C 87.351562 291.765625 87.382812 292.070312 87.445312 292.375 C 87.503906 292.679688 87.59375 292.976562 87.710938 293.261719 C 87.832031 293.546875 87.976562 293.820312 88.148438 294.078125 C 88.320312 294.335938 88.515625 294.574219 88.734375 294.792969 C 88.953125 295.011719 89.191406 295.207031 89.449219 295.378906 C 89.707031 295.550781 89.980469 295.695312 90.265625 295.816406 C 90.554688 295.933594 90.847656 296.023438 91.152344 296.082031 C 91.457031 296.144531 91.761719 296.175781 92.074219 296.175781 C 92.382812 296.175781 92.691406 296.144531 92.992188 296.082031 C 93.296875 296.023438 93.59375 295.933594 93.878906 295.816406 C 94.164062 295.695312 94.4375 295.550781 94.695312 295.378906 C 94.953125 295.207031 95.191406 295.011719 95.410156 294.792969 Z M 95.410156 294.792969 "/>
<path style=" stroke:none;fill-rule:nonzero;fill:rgb(9.799194%,14.898682%,27.449036%);fill-opacity:1;" d="M 50.878906 196.71875 L 74.476562 196.71875 C 74.789062 196.71875 75.09375 196.691406 75.398438 196.628906 C 75.703125 196.570312 75.996094 196.480469 76.285156 196.359375 C 76.570312 196.242188 76.84375 196.097656 77.101562 195.925781 C 77.359375 195.753906 77.597656 195.554688 77.816406 195.335938 C 78.035156 195.117188 78.230469 194.878906 78.402344 194.621094 C 78.574219 194.363281 78.71875 194.09375 78.839844 193.804688 C 78.957031 193.519531 79.046875 193.226562 79.105469 192.921875 C 79.167969 192.617188 79.199219 192.308594 79.199219 192 C 79.199219 191.691406 79.167969 191.382812 79.105469 191.078125 C 79.046875 190.773438 78.957031 190.480469 78.839844 190.195312 C 78.71875 189.90625 78.574219 189.636719 78.402344 189.378906 C 78.230469 189.121094 78.035156 188.882812 77.816406 188.664062 C 77.597656 188.445312 77.359375 188.246094 77.101562 188.074219 C 76.84375 187.902344 76.570312 187.757812 76.285156 187.640625 C 75.996094 187.519531 75.703125 187.429688 75.398438 187.371094 C 75.09375 187.308594 74.789062 187.28125 74.476562 187.28125 L 50.878906 187.28125 C 50.570312 187.28125 50.261719 187.308594 49.957031 187.371094 C 49.65625 187.429688 49.359375 187.519531 49.074219 187.640625 C 48.785156 187.757812 48.515625 187.902344 48.257812 188.074219 C 48 188.246094 47.761719 188.445312 47.542969 188.664062 C 47.324219 188.882812 47.125 189.121094 46.953125 189.378906 C 46.78125 189.636719 46.636719 189.90625 46.519531 190.195312 C 46.398438 190.480469 46.308594 190.773438 46.25 191.078125 C 46.191406 191.382812 46.160156 191.691406 46.160156 192 C 46.160156 192.308594 46.191406 192.617188 46.25 192.921875 C 46.308594 193.226562 46.398438 193.519531 46.519531 193.804688 C 46.636719 194.09375 46.78125 194.363281 46.953125 194.621094 C 47.125 194.878906 47.324219 195.117188 47.542969 195.335938 C 47.761719 195.554688 48 195.753906 48.257812 195.925781 C 48.515625 196.097656 48.785156 196.242188 49.074219 196.359375 C 49.359375 196.480469 49.65625 196.570312 49.957031 196.628906 C 50.261719 196.691406 50.570312 196.71875 50.878906 196.71875 Z M 50.878906 196.71875 "/>
<path style=" stroke:none;fill-rule:nonzero;fill:rgb(21.958923%,63.139343%,41.178894%);fill-opacity:1;" d="M 92.074219 92.546875 L 108.761719 109.234375 "/>
<path style=" stroke:none;fill-rule:nonzero;fill:rgb(9.799194%,14.898682%,27.449036%);fill-opacity:1;" d="M 88.734375 95.882812 L 105.425781 112.570312 C 105.644531 112.789062 105.882812 112.988281 106.140625 113.160156 C 106.398438 113.332031 106.667969 113.476562 106.957031 113.59375 C 107.242188 113.714844 107.539062 113.804688 107.839844 113.863281 C 108.144531 113.921875 108.453125 113.953125 108.761719 113.953125 C 109.070312 113.953125 109.378906 113.921875 109.683594 113.863281 C 109.988281 113.804688 110.28125 113.714844 110.570312 113.59375 C 110.855469 113.476562 111.125 113.332031 111.382812 113.160156 C 111.640625 112.988281 111.878906 112.789062 112.101562 112.570312 C 112.320312 112.351562 112.515625 112.113281 112.6875 111.855469 C 112.859375 111.597656 113.003906 111.328125 113.121094 111.039062 C 113.242188 110.753906 113.332031 110.460938 113.390625 110.15625 C 113.453125 109.851562 113.480469 109.542969 113.480469 109.234375 C 113.480469 108.925781 113.453125 108.617188 113.390625 108.3125 C 113.332031 108.007812 113.242188 107.714844 113.121094 107.429688 C 113.003906 107.140625 112.859375 106.871094 112.6875 106.613281 C 112.515625 106.355469 112.320312 106.117188 112.097656 105.898438 L 95.410156 89.207031 C 95.191406 88.988281 94.953125 88.792969 94.695312 88.621094 C 94.4375 88.449219 94.164062 88.304688 93.878906 88.183594 C 93.59375 88.066406 93.296875 87.976562 92.992188 87.917969 C 92.691406 87.855469 92.382812 87.824219 92.074219 87.824219 C 91.761719 87.824219 91.457031 87.855469 91.152344 87.917969 C 90.847656 87.976562 90.554688 88.066406 90.265625 88.183594 C 89.980469 88.304688 89.707031 88.449219 89.449219 88.621094 C 89.191406 88.792969 88.953125 88.988281 88.734375 89.207031 C 88.515625 89.425781 88.320312 89.664062 88.148438 89.921875 C 87.976562 90.179688 87.832031 90.453125 87.710938 90.738281 C 87.59375 91.023438 87.503906 91.320312 87.445312 91.625 C 87.382812 91.929688 87.351562 92.234375 87.351562 92.546875 C 87.351562 92.855469 87.382812 93.160156 87.445312 93.464844 C 87.503906 93.769531 87.59375 94.066406 87.710938 94.351562 C 87.832031 94.636719 87.976562 94.910156 88.148438 95.167969 C 88.320312 95.425781 88.515625 95.664062 88.734375 95.882812 Z M 88.734375 95.882812 "/>
</g>
</svg>
